#!OML:ASF F:\VICON\USERDATA\INSTALL\rory3\rory3.ASF
:FULLY-SPECIFIED
:DEGREES
1658
root -2.33532 16.7302 29.396 -520.16 -10.9322 174.171
lowerback -27.5726 -1.39205 -9.15086
upperback -19.2538 -6.33816 -1.97369
thorax -6.6558 -5.03375 1.92352
lowerneck -11.4657 1.28696 -0.911869
upperneck 37.0079 -3.1433 3.63072
head 14.817 -2.64667 0.74283
rclavicle 1.46107e-014 5.1858e-014
rhumerus -57.2531 22.2586 -31.8819
rradius 72.7119
rwrist 8.36783
rhand -26.6636 55.9265
rfingers 7.12502
rthumb -0.0951576 25.9468
lclavicle 1.46107e-014 5.1858e-014
lhumerus -50.6522 -31.8989 35.4615
lradius 81.7995
lwrist -45.9885
lhand -38.3937 -5.01441
lfingers 7.12502
lthumb -11.419 24.6546
rfemur -246.983 -188.828 182.861
rtibia 43.8206
rfoot 307.127 -380.622
rtoes 61.0425
lfemur -19.3827 2.41283 -36.8066
ltibia 27.1368
lfoot -42.6898 28.692
ltoes 5.19962
1659
root -2.33344 16.7329 29.3726 -520.124 -10.9366 174.248
lowerback -27.5692 -1.25993 -9.20471
upperback -19.428 -6.28325 -2.16542
thorax -6.91445 -5.04478 1.77925
lowerneck -11.735 0.816553 -0.637087
upperneck 34.8418 -3.11335 3.4156
head 13.8601 -2.38521 0.670708
rclavicle -2.93207e-015 3.01159e-014
rhumerus -58.7657 19.5532 -31.2087
rradius 69.1459
rwrist 9.49102
rhand -26.4494 55.7917
rfingers 7.12502
rthumb 0.111708 25.812
lclavicle -2.93207e-015 3.01159e-014
lhumerus -52.3887 -30.1002 35.0436
lradius 79.1302
lwrist -46.0126
lhand -38.5083 -5.2297
lfingers 7.12502
lthumb -11.5295 24.4332
rfemur -246.939 -188.984 183.028
rtibia 43.8334
rfoot 306.72 -379.512
rtoes 61.3206
lfemur -19.2733 2.25407 -36.674
ltibia 26.9977
lfoot -42.6207 28.971
ltoes 4.76085
1660
root -2.33049 16.7348 29.3487 -520.042 -10.9346 174.151
lowerback -27.6538 -1.18348 -9.55417
upperback -19.8478 -6.26701 -2.33097
thorax -6.96934 -5.05399 1.73946
lowerneck -11.7541 0.348495 -0.40712
upperneck 32.4632 -3.11216 3.1955
head 12.8202 -2.17086 0.599512
rclavicle 1.25234e-014 -7.65321e-015
rhumerus -60.1332 17.2141 -30.2238
rradius 65.3948
rwrist 10.9332
rhand -26.5974 55.6806
rfingers 7.12502
rthumb -0.0312669 25.7009
lclavicle 1.25234e-014 -7.65321e-015
lhumerus -54.0594 -28.6523 34.569
lradius 76.633
lwrist -45.5799
lhand -38.4279 -5.55819
lfingers 7.12502
lthumb -11.452 24.109
rfemur -246.897 -189.06 183.024
rtibia 43.8902
rfoot 306.306 -378.04
rtoes 61.6628
lfemur -19.1465 2.24521 -36.7365
ltibia 26.834
lfoot -42.5067 29.066
ltoes 4.30203
1661
root -2.32978 16.7384 29.3253 -519.847 -11.0455 174.138
lowerback -27.6317 -1.16696 -9.66966
upperback -20.0625 -6.36364 -2.42982
thorax -7.23691 -5.12838 1.70755
lowerneck -12.1985 0.0591771 -0.4255
upperneck 30.0569 -2.89653 3.2555
head 11.9229 -1.85572 0.701816
rclavicle 1.98785e-016 -2.68359e-014
rhumerus -60.9559 15.2715 -29.1613
rradius 61.323
rwrist 11.9167
rhand -26.9683 55.9007
rfingers 7.12502
rthumb -0.389517 25.9214
lclavicle 1.98785e-016 -2.68359e-014
lhumerus -55.4152 -26.8607 33.6602
lradius 73.8543
lwrist -45.3795
lhand -38.4038 -6.53411
lfingers 7.12502
lthumb -11.4288 23.1344
rfemur -246.969 -189.006 183.083
rtibia 43.9498
rfoot 306.215 -377.479
rtoes 61.7852
lfemur -19.1482 2.12833 -36.6923
ltibia 26.6687
lfoot -42.4121 29.112
ltoes 3.85299
1662
root -2.32958 16.7434 29.3043 -519.671 -11.1473 174.056
lowerback -27.5483 -1.22608 -9.82573
upperback -20.2184 -6.50943 -2.44503
thorax -7.44573 -5.20361 1.77183
lowerneck -12.682 -0.142373 -0.562397
upperneck 27.169 -2.52487 3.39362
head 10.8974 -1.4695 0.864874
rclavicle 9.93923e-016 -2.40529e-014
rhumerus -61.2786 13.6925 -28.0005
rradius 56.8534
rwrist 12.2775
rhand -26.8767 56.2562
rfingers 7.12502
rthumb -0.301021 26.2767
lclavicle 9.93923e-016 -2.40529e-014
lhumerus -56.7623 -25.0099 32.6414
lradius 71.2372
lwrist -45.1885
lhand -38.0582 -7.21725
lfingers 7.12502
lthumb -11.0954 22.4694
rfemur -247.054 -188.932 183.064
rtibia 44.0473
rfoot 306.177 -377.821
rtoes 61.6907
lfemur -19.0839 2.02603 -36.7296
ltibia 26.4424
lfoot -42.1819 29.236
ltoes 3.51439
1663
root -2.33156 16.755 29.2835 -519.748 -11.0589 174.323
lowerback -27.4086 -1.16217 -9.61345
upperback -20.247 -6.4672 -2.32315
thorax -7.52427 -5.18358 1.81338
lowerneck -13.2785 -0.386805 -0.858781
upperneck 24.1002 -2.2257 3.4814
head 9.88545 -1.15962 1.00981
rclavicle 4.47266e-015 9.44227e-015
rhumerus -61.2967 12.33 -26.8798
rradius 52.6293
rwrist 12.6395
rhand -26.7773 55.8707
rfingers 7.12502
rthumb -0.204956 25.891
lclavicle 4.47266e-015 9.44227e-015
lhumerus -57.9174 -23.1421 31.6499
lradius 68.8313
lwrist -44.7329
lhand -37.1934 -7.08867
lfingers 7.12502
lthumb -10.2612 22.641
rfemur -247.024 -189.231 183.34
rtibia 44.1116
rfoot 306.349 -379.432
rtoes 61.2301
lfemur -18.8996 1.99113 -36.451
ltibia 26.2631
lfoot -42.2845 29.3314
ltoes 3.73041
1664
root -2.32732 16.7591 29.2657 -519.609 -10.9675 174.24
lowerback -27.2902 -1.19334 -9.8195
upperback -20.3893 -6.55803 -2.28479
thorax -7.72734 -5.21734 1.9732
lowerneck -13.2264 -0.63034 -0.921521
upperneck 20.4854 -1.98276 3.26047
head 8.60935 -0.93346 0.989035
rclavicle -2.38542e-014 -3.48867e-014
rhumerus -61.1572 11.0752 -25.5668
rradius 48.0403
rwrist 13.3539
rhand -26.5888 56.3167
rfingers 7.12502
rthumb -0.022927 26.337
lclavicle -2.38542e-014 -3.48867e-014
lhumerus -59.1269 -21.6852 30.6997
lradius 66.6375
lwrist -43.9997
lhand -36.4772 -6.31064
lfingers 7.12502
lthumb -9.57029 23.452
rfemur -247.177 -189.322 183.244
rtibia 44.1767
rfoot 306.441 -380.464
rtoes 60.9166
lfemur -18.8906 1.91646 -36.5114
ltibia 26.1191
lfoot -42.4226 29.3361
ltoes 3.76727
1665
root -2.31816 16.755 29.2525 -519.373 -11.0365 173.991
lowerback -27.2044 -1.29576 -10.2363
upperback -20.6018 -6.75757 -2.3322
thorax -8.00299 -5.3036 2.13899
lowerneck -12.8034 -0.776149 -1.00866
upperneck 16.6401 -1.77643 3.31129
head 7.25268 -0.74965 1.05005
rclavicle -1.66979e-014 -6.14245e-014
rhumerus -61.1867 10.1526 -24.3984
rradius 43.9894
rwrist 14.1809
rhand -26.2666 55.544
rfingers 7.12502
rthumb 0.288291 25.5645
lclavicle -1.66979e-014 -6.14245e-014
lhumerus -59.8137 -20.2105 28.9249
lradius 63.3776
lwrist -45.6504
lhand -37.806 -7.15147
lfingers 7.12502
lthumb -10.8522 22.5481
rfemur -247.294 -189.183 183.049
rtibia 44.2125
rfoot 305.954 -378.924
rtoes 61.218
lfemur -18.952 1.73355 -36.6901
ltibia 25.9812
lfoot -42.303 29.4556
ltoes 3.47889
1666
root -2.31351 16.756 29.2398 -519.205 -11.0458 174.031
lowerback -27.1085 -1.26366 -10.3338
upperback -20.8325 -6.84801 -2.35732
thorax -8.31419 -5.36497 2.18868
lowerneck -12.1068 -0.893645 -1.03725
upperneck 12.4138 -1.63269 3.38109
head 5.77894 -0.639317 1.09266
rclavicle -2.17669e-014 -3.97569e-016
rhumerus -61.3217 9.27421 -23.0183
rradius 40.2599
rwrist 15.1573
rhand -25.618 55.0471
rfingers 7.12502
rthumb 0.914716 25.0693
lclavicle -2.17669e-014 -3.97569e-016
lhumerus -60.4858 -19.4223 27.7543
lradius 60.898
lwrist -45.4341
lhand -37.0474 -5.75231
lfingers 7.12502
lthumb -10.1204 23.9843
rfemur -247.426 -189.225 183.109
rtibia 44.2438
rfoot 305.808 -378.387
rtoes 61.2863
lfemur -19.0267 1.58522 -36.6105
ltibia 25.8321
lfoot -42.1662 29.5554
ltoes 3.63847
1667
root -2.31502 16.7567 29.2208 -519.198 -10.972 174.061
lowerback -26.9426 -1.19788 -10.3402
upperback -20.9811 -6.86619 -2.39377
thorax -8.5657 -5.38567 2.18972
lowerneck -11.4443 -0.927211 -1.21697
upperneck 8.10198 -1.46856 3.57882
head 4.32762 -0.565526 1.19591
rclavicle 6.71892e-014 7.21588e-014
rhumerus -61.3046 8.27113 -21.45
rradius 36.6745
rwrist 16.657
rhand -25.2319 54.2053
rfingers 7.12502
rthumb 1.28757 24.2295
lclavicle 6.71892e-014 7.21588e-014
lhumerus -61.1 -19.0076 26.989
lradius 58.7517
lwrist -44.2414
lhand -35.136 -2.58247
lfingers 7.12502
lthumb -8.27602 27.2354
rfemur -247.424 -189.361 183.133
rtibia 44.3065
rfoot 305.774 -378.315
rtoes 61.2922
lfemur -18.8747 1.51316 -36.5642
ltibia 25.655
lfoot -42.5047 29.3227
ltoes 4.364
1668
root -2.31808 16.7595 29.1992 -519.314 -10.9485 174.168
lowerback -26.7263 -1.13752 -10.2509
upperback -21.0834 -6.86561 -2.36847
thorax -8.77604 -5.3877 2.20663
lowerneck -11.3757 -0.923805 -1.66299
upperneck 4.21913 -1.33228 3.81393
head 3.44762 -0.549773 1.47433
rclavicle 2.23633e-014 1.13307e-014
rhumerus -61.0994 7.05103 -19.4209
rradius 33.2562
rwrist 18.8994
rhand -25.3308 53.0765
rfingers 7.12502
rthumb 1.19207 23.1001
lclavicle 2.23633e-014 1.13307e-014
lhumerus -61.4739 -18.4899 26.1365
lradius 55.858
lwrist -43.5004
lhand -34.1337 0.234714
lfingers 7.12502
lthumb -7.30859 30.0885
rfemur -247.282 -189.517 183.264
rtibia 44.394
rfoot 305.837 -378.081
rtoes 61.36
lfemur -18.5642 1.55173 -36.4214
ltibia 25.425
lfoot -42.6111 29.2812
ltoes 4.42211
1669
root -2.31754 16.7667 29.1868 -519.22 -10.9537 174.106
lowerback -26.5976 -1.09742 -10.3204
upperback -21.2557 -6.92094 -2.42031
thorax -9.04124 -5.42703 2.21755
lowerneck -11.503 -0.913925 -1.9845
upperneck 1.18424 -1.29322 4.00468
head 2.4335 -0.589481 1.572
rclavicle -2.24627e-014 5.4467e-014
rhumerus -60.9096 5.72126 -17.0068
rradius 30.0508
rwrist 21.137
rhand -25.0691 52.3226
rfingers 7.12502
rthumb 1.44484 22.3478
lclavicle -2.24627e-014 5.4467e-014
lhumerus -60.5691 -16.4714 22.4228
lradius 51.0673
lwrist -46.9743
lhand -35.9789 -8.07862
lfingers 7.12502
lthumb -9.08945 21.7055
rfemur -247.388 -189.501 183.203
rtibia 44.5176
rfoot 306.168 -379.25
rtoes 61.0383
lfemur -18.4653 1.55983 -36.4697
ltibia 25.1568
lfoot -42.3478 29.5573
ltoes 3.74588
